<?xml version="1.0" encoding="utf-8"?>
<!-- Generator: Adobe Illustrator 21.0.2, SVG Export Plug-In . SVG Version: 6.00 Build 0)  -->
<svg version="1.1" id="Layer_1" xmlns="http://www.w3.org/2000/svg" xmlns:xlink="http://www.w3.org/1999/xlink" x="0px" y="0px"
	 viewBox="0 0 12 16" style="enable-background:new 0 0 12 16;" xml:space="preserve">
<style type="text/css">
	.st0{fill:#9FA19F;}
</style>
<path class="st0" d="M8.5,1H1C0.4,1,0,1.5,0,2v12c0,0.6,0.4,1,1,1h10c0.6,0,1-0.4,1-1V4.5L8.5,1z M11,14H1V2h7l3,3V14z M5,7L3.5,8.5
	L5,10l-0.5,1L2,8.5L4.5,6L5,7z M7.5,6L10,8.5L7.5,11L7,10l1.5-1.5L7,7L7.5,6z"/>
</svg>
