<?xml version="1.0" encoding="utf-8"?>
<!-- Generator: Adobe Illustrator 21.0.2, SVG Export Plug-In . SVG Version: 6.00 Build 0)  -->
<svg version="1.1" id="Layer_1" xmlns="http://www.w3.org/2000/svg" xmlns:xlink="http://www.w3.org/1999/xlink" x="0px" y="0px"
	 viewBox="0 0 12 16" style="enable-background:new 0 0 12 16;" xml:space="preserve">
<style type="text/css">
	.st0{fill:#9FA19F;}
</style>
<path class="st0" d="M8.5,1H1C0.4,1,0,1.4,0,2v12c0,0.6,0.4,1,1,1h10c0.6,0,1-0.4,1-1V4.5L8.5,1z M1,2h4C4.9,2,4.8,2.1,4.7,2.2
	C4.6,2.3,4.5,2.5,4.5,2.7c-0.1,0.5-0.1,1-0.1,1.5c0.1,0.6,0.2,1.2,0.3,1.8C4.4,6.9,4,7.7,3.6,8.6c-0.5,1-0.8,1.7-0.9,1.8
	c-0.2,0.1-0.5,0.2-0.7,0.3c-0.4,0.2-0.7,0.4-1,0.6C1,11.4,1,2,1,2z M5.4,6.8c0.2,0.8,0.6,1.5,1.2,2.1c0.3,0.2,0.6,0.4,0.9,0.5
	C6.9,9.5,6.3,9.6,5.7,9.8c-0.6,0.1-1.2,0.3-1.8,0.6c-0.6,0.2,0.2-0.4,0.6-1.2C4.9,8.4,5.2,7.6,5.4,6.8L5.4,6.8z M11,14H1.5
	c-0.1,0-0.1,0-0.2,0c0.3-0.1,0.5-0.2,0.7-0.4c0.7-0.7,1.3-1.5,1.8-2.4c0.3-0.1,0.6-0.2,0.8-0.3l0.4-0.1c0.4-0.1,0.9-0.2,1.4-0.3
	s1-0.2,1.5-0.2c0.4,0.2,0.9,0.4,1.4,0.5c0.4,0.1,0.8,0.2,1.2,0.2H11L11,14L11,14z M11,9.1c-0.2-0.1-0.4-0.2-0.6-0.3
	c-0.2-0.1-0.5-0.1-0.8-0.1c-0.4,0-0.8,0-1.2,0.1C8,8.7,7.7,8.5,7.4,8.2c-0.6-0.7-1-1.5-1.3-2.3c0.1-0.7,0.2-1.3,0.2-2
	c0-0.2,0-0.5,0-0.8c0.1-0.3,0-0.6-0.2-0.9C5.9,2.1,5.7,2,5.5,2H8l3,3V9.1z"/>
</svg>
