<?xml version="1.0" encoding="utf-8"?>
<!-- Generator: Adobe Illustrator 21.1.0, SVG Export Plug-In . SVG Version: 6.00 Build 0)  -->
<svg version="1.1" id="Layer_1" xmlns="http://www.w3.org/2000/svg" xmlns:xlink="http://www.w3.org/1999/xlink" x="0px" y="0px"
	 viewBox="0 0 100 100" style="enable-background:new 0 0 100 100;" xml:space="preserve">
<style type="text/css">
	.st0{fill:#9FA19F;}
</style>
<g id="surface1">
	<path class="st0" d="M13.6,4C13.5,4,13.5,4.1,13.6,4c-0.1,0.1-0.2,0-0.2,0.1c-0.4,0-0.8,0.2-1.1,0.5C10.8,5.3,10,6.8,10,8.4V92
		c0,1.2,0.5,2.5,1.6,3.3c0.5,0.5,1.2,0.8,1.9,0.6c0.9,0,1.9-0.2,2.7-0.6c1.7-1,36.3-21,36.3-21l18.1-10.4c0,0,0.1,0,0.1-0.1l0.2-0.1
		c0,0,0.2-0.1,0.2-0.1c0,0,0,0,0.1-0.1c0.5-0.3,15.3-8.8,17.4-10c1.4-0.8,2.5-2.1,2.5-3.8s-1.2-2.9-2.4-3.6c-0.7-0.4-5.3-3-9.5-5.4
		s-8.2-4.8-8.2-4.8L52.4,25.3c0,0-33.5-19.4-35.5-20.5c-0.7-0.4-1.5-0.7-2.2-0.8C14.3,4,13.9,3.9,13.6,4z M14,9.4l40.8,40.4L14,90.2
		V9.4z M23.5,13.2c10.2,5.9,26.9,15.6,26.9,15.6l16.1,9.3l-9,8.9L23.5,13.2z M70.1,40.1c1,0.6,3.4,2,7,4.1c4.2,2.5,8.6,4.9,9.6,5.5
		c0.1,0.1,0.1,0.1,0.1,0.1c-0.1,0.1-0.1,0.1-0.3,0.2c-1.9,1.1-14.4,8.3-16.4,9.5l-9.8-9.7L70.1,40.1z M57.6,52.6l9.1,9l-16.2,9.3
		c0,0-16.3,9.4-26.9,15.5L57.6,52.6z"/>
</g>
</svg>
