<?xml version="1.0" encoding="utf-8"?>
<!-- Generator: Adobe Illustrator 21.0.2, SVG Export Plug-In . SVG Version: 6.00 Build 0)  -->
<svg version="1.1" id="Layer_1" xmlns="http://www.w3.org/2000/svg" xmlns:xlink="http://www.w3.org/1999/xlink" x="0px" y="0px"
	 viewBox="0 0 16 16" style="enable-background:new 0 0 16 16;" xml:space="preserve">
<style type="text/css">
	.st0{fill:#9FA19F;}
</style>
<path class="st0" d="M4,9h1v1H4c-1.5,0-3-1.7-3-3.5S2.5,3,4,3h4c1.4,0,3,1.7,3,3.5c0,1.4-0.9,2.7-2,3.2V8.6c0.6-0.4,1-1.3,1-2.1
	C10,5.2,9,4,8,4H4C3,4,2,5.2,2,6.5S3,9,4,9z M13,6h-1v1h1c1,0,2,1.2,2,2.5S14,12,13,12H9c-1,0-2-1.2-2-2.5c0-0.8,0.4-1.6,1-2.1V6.2
	C6.9,6.8,6,8.1,6,9.5C6,11.3,7.6,13,9,13h4c1.4,0,3-1.7,3-3.5S14.5,6,13,6z"/>
</svg>
