<?xml version="1.0" encoding="utf-8"?>
<!-- Generator: Adobe Illustrator 21.0.2, SVG Export Plug-In . SVG Version: 6.00 Build 0)  -->
<svg version="1.1" id="Layer_1" xmlns="http://www.w3.org/2000/svg" xmlns:xlink="http://www.w3.org/1999/xlink" x="0px" y="0px"
	 viewBox="0 0 16 16" style="enable-background:new 0 0 16 16;" xml:space="preserve">
<style type="text/css">
	.st0{fill:#9FA19F;}
</style>
<path class="st0" d="M7.8,9.2L4,8c-4-8,0,1.5,0,2.5S5.8,12,8,12s4-0.5,4-1.5V8L8.2,9.2C8.1,9.2,7.9,9.2,7.8,9.2L7.8,9.2z M8.1,2.8
	c-0.1,0-0.1,0-0.2,0L0.3,5.2C0.1,5.2,0,5.4,0,5.6c0,0.1,0.1,0.2,0.2,0.2L2,6.4v1.8C1.7,8.3,1.5,8.7,1.5,9c0,0.2,0,0.4,0.1,0.5
	C1.6,9.7,1.5,9.8,1.5,10v2.6c0,0.6,2,0.6,2,0V10c0-0.2,0-0.4-0.1-0.5C3.4,9.4,3.5,9.2,3.5,9c0-0.4-0.2-0.7-0.5-0.9V6.7l4.9,1.5
	c0.1,0,0.1,0,0.2,0l7.6-2.4C15.9,5.8,16,5.6,16,5.4c0-0.1-0.1-0.2-0.2-0.2L8.1,2.8C8.1,2.8,8.1,2.8,8.1,2.8z M8,6C7.5,6,7,5.8,7,5.5
	S7.5,5,8,5s1,0.2,1,0.5S8.6,6,8,6z"/>
</svg>
