<?xml version="1.0" encoding="utf-8"?>
<!-- Generator: Adobe Illustrator 21.0.2, SVG Export Plug-In . SVG Version: 6.00 Build 0)  -->
<svg version="1.1" id="Layer_1" xmlns="http://www.w3.org/2000/svg" xmlns:xlink="http://www.w3.org/1999/xlink" x="0px" y="0px"
	 viewBox="0 0 12 16" style="enable-background:new 0 0 12 16;" xml:space="preserve">
<style type="text/css">
	.st0{fill:#9FA19F;}
</style>
<path class="st0" d="M12,14c0,0.6-0.4,1-1,1l0,0H1c-0.6,0-1-0.4-1-1c0,0,0,0,0,0v-1c0-2.6,4-4,4-4s0.2-0.4,0-1C3.2,7.4,3.1,6.4,3,4
	c0.2-2.4,1.9-3,3-3s2.8,0.6,3,3C8.9,6.4,8.8,7.4,8,8C7.8,8.6,8,9,8,9s4,1.4,4,4V14z"/>
</svg>
